<svg xmlns="http://www.w3.org/2000/svg" width="2944" height="1232" viewBox="0 0 2944 1232" role="img" aria-label="Saved Defy L1 L1">
<style>text{font-family:Inter,Arial,sans-serif}</style>
<rect width="2944" height="1232" fill="#101725"/>
<text x="70" y="78" fill="#f4f7ff" font-size="40" font-weight="700">L1 · L1</text>
<text x="70" y="116" fill="#aab9d1" font-size="19">20261010135117-Silver Defy.json · SHA-256 756798932b4f</text>
<text x="70" y="153" fill="#fbbf75" font-size="18">Stored keycodes · palette colors approximated on screen · dashed border means LED mapping unverified</text>
<text x="70" y="213" fill="#9aafcc" font-size="19" font-weight="700">LEFT HALF</text>
<text x="1572" y="213" fill="#9aafcc" font-size="19" font-weight="700">RIGHT HALF</text>
<rect x="70" y="245" width="174" height="118" rx="15" fill="#263244" stroke="#ff0900" stroke-width="4"><title>defy:left:r1:c1 | L1 Esc | L1 Esc (41) | LED 0, palette slot 11</title></rect>
<text x="80" y="268" fill="#b9c8d9" font-size="14">L1 Esc</text>
<text x="80" y="311" fill="#f4f8fb" font-size="19" font-weight="650">Esc</text>
<text x="80" y="349" fill="#90a5bb" font-size="13">code 41 · slot 11</text>
<rect x="258" y="245" width="174" height="118" rx="15" fill="#263244" stroke="#00feea" stroke-width="4"><title>defy:left:r1:c2 | L1 1 | L1 1 (30) | LED 1, palette slot 4</title></rect>
<text x="268" y="268" fill="#b9c8d9" font-size="14">L1 1</text>
<text x="268" y="311" fill="#f4f8fb" font-size="19" font-weight="650">1</text>
<text x="268" y="349" fill="#90a5bb" font-size="13">code 30 · slot 4</text>
<rect x="446" y="245" width="174" height="118" rx="15" fill="#263244" stroke="#00feea" stroke-width="4"><title>defy:left:r1:c3 | L1 2 | L1 2 (31) | LED 2, palette slot 4</title></rect>
<text x="456" y="268" fill="#b9c8d9" font-size="14">L1 2</text>
<text x="456" y="311" fill="#f4f8fb" font-size="19" font-weight="650">2</text>
<text x="456" y="349" fill="#90a5bb" font-size="13">code 31 · slot 4</text>
<rect x="634" y="245" width="174" height="118" rx="15" fill="#263244" stroke="#00feea" stroke-width="4"><title>defy:left:r1:c4 | L1 3 | L1 3 (32) | LED 3, palette slot 4</title></rect>
<text x="644" y="268" fill="#b9c8d9" font-size="14">L1 3</text>
<text x="644" y="311" fill="#f4f8fb" font-size="19" font-weight="650">3</text>
<text x="644" y="349" fill="#90a5bb" font-size="13">code 32 · slot 4</text>
<rect x="822" y="245" width="174" height="118" rx="15" fill="#263244" stroke="#00feea" stroke-width="4"><title>defy:left:r1:c5 | L1 4 | L1 4 (33) | LED 4, palette slot 4</title></rect>
<text x="832" y="268" fill="#b9c8d9" font-size="14">L1 4</text>
<text x="832" y="311" fill="#f4f8fb" font-size="19" font-weight="650">4</text>
<text x="832" y="349" fill="#90a5bb" font-size="13">code 33 · slot 4</text>
<rect x="1010" y="245" width="174" height="118" rx="15" fill="#263244" stroke="#00feea" stroke-width="4"><title>defy:left:r1:c6 | L1 5 | L1 5 (34) | LED 5, palette slot 4</title></rect>
<text x="1020" y="268" fill="#b9c8d9" font-size="14">L1 5</text>
<text x="1020" y="311" fill="#f4f8fb" font-size="19" font-weight="650">5</text>
<text x="1020" y="349" fill="#90a5bb" font-size="13">code 34 · slot 4</text>
<rect x="1198" y="245" width="174" height="118" rx="15" fill="#263244" stroke="#57a4ff" stroke-width="4"><title>defy:left:r1:c7 | L1 Code 2095 | L1 Code 2095 (2095) | LED 6, palette slot 7</title></rect>
<text x="1208" y="268" fill="#b9c8d9" font-size="14">L1 Code 2095</text>
<text x="1208" y="311" fill="#f4f8fb" font-size="19" font-weight="650">Code 2095</text>
<text x="1208" y="349" fill="#90a5bb" font-size="13">code 2095 · slot 7</text>
<rect x="70" y="377" width="174" height="118" rx="15" fill="#263244" stroke="#9013fe" stroke-width="4"><title>defy:left:r2:c1 | L1 Tab | L1 Tab (43) | LED 7, palette slot 8</title></rect>
<text x="80" y="400" fill="#b9c8d9" font-size="14">L1 Tab</text>
<text x="80" y="443" fill="#f4f8fb" font-size="19" font-weight="650">Tab</text>
<text x="80" y="481" fill="#90a5bb" font-size="13">code 43 · slot 8</text>
<rect x="258" y="377" width="174" height="118" rx="15" fill="#263244" stroke="#00feea" stroke-width="4"><title>defy:left:r2:c2 | L1 Q | L1 Q (20) | LED 8, palette slot 4</title></rect>
<text x="268" y="400" fill="#b9c8d9" font-size="14">L1 Q</text>
<text x="268" y="443" fill="#f4f8fb" font-size="19" font-weight="650">Q</text>
<text x="268" y="481" fill="#90a5bb" font-size="13">code 20 · slot 4</text>
<rect x="446" y="377" width="174" height="118" rx="15" fill="#263244" stroke="#00feea" stroke-width="4"><title>defy:left:r2:c3 | L1 W | L1 W (26) | LED 9, palette slot 4</title></rect>
<text x="456" y="400" fill="#b9c8d9" font-size="14">L1 W</text>
<text x="456" y="443" fill="#f4f8fb" font-size="19" font-weight="650">W</text>
<text x="456" y="481" fill="#90a5bb" font-size="13">code 26 · slot 4</text>
<rect x="634" y="377" width="174" height="118" rx="15" fill="#263244" stroke="#00feea" stroke-width="4"><title>defy:left:r2:c4 | L1 E | L1 E (8) | LED 10, palette slot 4</title></rect>
<text x="644" y="400" fill="#b9c8d9" font-size="14">L1 E</text>
<text x="644" y="443" fill="#f4f8fb" font-size="19" font-weight="650">E</text>
<text x="644" y="481" fill="#90a5bb" font-size="13">code 8 · slot 4</text>
<rect x="822" y="377" width="174" height="118" rx="15" fill="#263244" stroke="#00feea" stroke-width="4"><title>defy:left:r2:c5 | L1 R | L1 R (21) | LED 11, palette slot 4</title></rect>
<text x="832" y="400" fill="#b9c8d9" font-size="14">L1 R</text>
<text x="832" y="443" fill="#f4f8fb" font-size="19" font-weight="650">R</text>
<text x="832" y="481" fill="#90a5bb" font-size="13">code 21 · slot 4</text>
<rect x="1010" y="377" width="174" height="118" rx="15" fill="#263244" stroke="#00feea" stroke-width="4"><title>defy:left:r2:c6 | L1 T | L1 T (23) | LED 12, palette slot 4</title></rect>
<text x="1020" y="400" fill="#b9c8d9" font-size="14">L1 T</text>
<text x="1020" y="443" fill="#f4f8fb" font-size="19" font-weight="650">T</text>
<text x="1020" y="481" fill="#90a5bb" font-size="13">code 23 · slot 4</text>
<rect x="1198" y="377" width="174" height="118" rx="15" fill="#263244" stroke="#57a4ff" stroke-width="4"><title>defy:left:r2:c7 | L1 Left Bracket | L1 Left Bracket (47) | LED 13, palette slot 7</title></rect>
<text x="1208" y="400" fill="#b9c8d9" font-size="14">L1 Left Bracket</text>
<text x="1208" y="443" fill="#f4f8fb" font-size="19" font-weight="650">Left Bracket</text>
<text x="1208" y="481" fill="#90a5bb" font-size="13">code 47 · slot 7</text>
<rect x="70" y="509" width="174" height="118" rx="15" fill="#263244" stroke="#e7ff00" stroke-width="4"><title>defy:left:r3:c1 | L1 Code 49163 | L1 Code 49163 (49163) | LED 14, palette slot 3</title></rect>
<text x="80" y="532" fill="#b9c8d9" font-size="14">L1 Code 49163</text>
<text x="80" y="575" fill="#f4f8fb" font-size="19" font-weight="650">Code 49163</text>
<text x="80" y="613" fill="#90a5bb" font-size="13">code 49163 · slot 3</text>
<rect x="258" y="509" width="174" height="118" rx="15" fill="#263244" stroke="#00feea" stroke-width="4"><title>defy:left:r3:c2 | L1 Superkey A | L1 Superkey A (53981) | LED 15, palette slot 4</title></rect>
<text x="268" y="532" fill="#b9c8d9" font-size="14">L1 Superkey A</text>
<text x="268" y="575" fill="#f4f8fb" font-size="19" font-weight="650">Superkey A</text>
<text x="268" y="613" fill="#90a5bb" font-size="13">code 53981 · slot 4</text>
<rect x="446" y="509" width="174" height="118" rx="15" fill="#263244" stroke="#00feea" stroke-width="4"><title>defy:left:r3:c3 | L1 Superkey S | L1 Superkey S (53982) | LED 16, palette slot 4</title></rect>
<text x="456" y="532" fill="#b9c8d9" font-size="14">L1 Superkey S</text>
<text x="456" y="575" fill="#f4f8fb" font-size="19" font-weight="650">Superkey S</text>
<text x="456" y="613" fill="#90a5bb" font-size="13">code 53982 · slot 4</text>
<rect x="634" y="509" width="174" height="118" rx="15" fill="#263244" stroke="#00feea" stroke-width="4"><title>defy:left:r3:c4 | L1 Superkey D | L1 Superkey D (53983) | LED 17, palette slot 4</title></rect>
<text x="644" y="532" fill="#b9c8d9" font-size="14">L1 Superkey D</text>
<text x="644" y="575" fill="#f4f8fb" font-size="19" font-weight="650">Superkey D</text>
<text x="644" y="613" fill="#90a5bb" font-size="13">code 53983 · slot 4</text>
<rect x="822" y="509" width="174" height="118" rx="15" fill="#263244" stroke="#00feea" stroke-width="4"><title>defy:left:r3:c5 | L1 Superkey F | L1 Superkey F (53984) | LED 18, palette slot 4</title></rect>
<text x="832" y="532" fill="#b9c8d9" font-size="14">L1 Superkey F</text>
<text x="832" y="575" fill="#f4f8fb" font-size="19" font-weight="650">Superkey F</text>
<text x="832" y="613" fill="#90a5bb" font-size="13">code 53984 · slot 4</text>
<rect x="1010" y="509" width="174" height="118" rx="15" fill="#263244" stroke="#00feea" stroke-width="4"><title>defy:left:r3:c6 | L1 G | L1 G (10) | LED 19, palette slot 4</title></rect>
<text x="1020" y="532" fill="#b9c8d9" font-size="14">L1 G</text>
<text x="1020" y="575" fill="#f4f8fb" font-size="19" font-weight="650">G</text>
<text x="1020" y="613" fill="#90a5bb" font-size="13">code 10 · slot 4</text>
<rect x="1198" y="509" width="174" height="118" rx="15" fill="#263244" stroke="#ff0082" stroke-width="4"><title>defy:left:r3:c7 | L1 Ctrl+Shift+C | L1 Ctrl+Shift+C (2310) | LED 20, palette slot 14</title></rect>
<text x="1208" y="532" fill="#b9c8d9" font-size="14">L1 Ctrl+Shift+C</text>
<text x="1208" y="575" fill="#f4f8fb" font-size="19" font-weight="650">Ctrl+Shift+C</text>
<text x="1208" y="613" fill="#90a5bb" font-size="13">code 2310 · slot 14</text>
<rect x="70" y="641" width="174" height="118" rx="15" fill="#263244" stroke="#ff6500" stroke-width="4"><title>defy:left:r4:c1 | L1 Code 17493 | L1 Code 17493 (17493) | LED 21, palette slot 12</title></rect>
<text x="80" y="664" fill="#b9c8d9" font-size="14">L1 Code 17493</text>
<text x="80" y="707" fill="#f4f8fb" font-size="19" font-weight="650">Code 17493</text>
<text x="80" y="745" fill="#90a5bb" font-size="13">code 17493 · slot 12</text>
<rect x="258" y="641" width="174" height="118" rx="15" fill="#263244" stroke="#00feea" stroke-width="4"><title>defy:left:r4:c2 | L1 Z | L1 Z (29) | LED 22, palette slot 4</title></rect>
<text x="268" y="664" fill="#b9c8d9" font-size="14">L1 Z</text>
<text x="268" y="707" fill="#f4f8fb" font-size="19" font-weight="650">Z</text>
<text x="268" y="745" fill="#90a5bb" font-size="13">code 29 · slot 4</text>
<rect x="446" y="641" width="174" height="118" rx="15" fill="#263244" stroke="#00feea" stroke-width="4"><title>defy:left:r4:c3 | L1 X | L1 X (27) | LED 23, palette slot 4</title></rect>
<text x="456" y="664" fill="#b9c8d9" font-size="14">L1 X</text>
<text x="456" y="707" fill="#f4f8fb" font-size="19" font-weight="650">X</text>
<text x="456" y="745" fill="#90a5bb" font-size="13">code 27 · slot 4</text>
<rect x="634" y="641" width="174" height="118" rx="15" fill="#263244" stroke="#00feea" stroke-width="4"><title>defy:left:r4:c4 | L1 C | L1 C (6) | LED 24, palette slot 4</title></rect>
<text x="644" y="664" fill="#b9c8d9" font-size="14">L1 C</text>
<text x="644" y="707" fill="#f4f8fb" font-size="19" font-weight="650">C</text>
<text x="644" y="745" fill="#90a5bb" font-size="13">code 6 · slot 4</text>
<rect x="822" y="641" width="174" height="118" rx="15" fill="#263244" stroke="#00feea" stroke-width="4"><title>defy:left:r4:c5 | L1 V | L1 V (25) | LED 25, palette slot 4</title></rect>
<text x="832" y="664" fill="#b9c8d9" font-size="14">L1 V</text>
<text x="832" y="707" fill="#f4f8fb" font-size="19" font-weight="650">V</text>
<text x="832" y="745" fill="#90a5bb" font-size="13">code 25 · slot 4</text>
<rect x="1010" y="641" width="174" height="118" rx="15" fill="#263244" stroke="#00feea" stroke-width="4"><title>defy:left:r4:c6 | L1 B | L1 B (5) | LED 26, palette slot 4</title></rect>
<text x="1020" y="664" fill="#b9c8d9" font-size="14">L1 B</text>
<text x="1020" y="707" fill="#f4f8fb" font-size="19" font-weight="650">B</text>
<text x="1020" y="745" fill="#90a5bb" font-size="13">code 5 · slot 4</text>
<rect x="634" y="793" width="174" height="118" rx="15" fill="#263244" stroke="#000000" stroke-width="4"><title>defy:left:r5:c1 | L1 No Key | L1 No Key (0) | LED 27, palette slot 15</title></rect>
<text x="644" y="816" fill="#b9c8d9" font-size="14">L1 No Key</text>
<text x="644" y="859" fill="#f4f8fb" font-size="19" font-weight="650">No Key</text>
<text x="644" y="897" fill="#90a5bb" font-size="13">code 0 · slot 15</text>
<rect x="822" y="793" width="174" height="118" rx="15" fill="#263244" stroke="#9013fe" stroke-width="4"><title>defy:left:r5:c2 | L1 Tab | L1 Tab (43) | LED 28, palette slot 8</title></rect>
<text x="832" y="816" fill="#b9c8d9" font-size="14">L1 Tab</text>
<text x="832" y="859" fill="#f4f8fb" font-size="19" font-weight="650">Tab</text>
<text x="832" y="897" fill="#90a5bb" font-size="13">code 43 · slot 8</text>
<rect x="1010" y="793" width="174" height="118" rx="15" fill="#263244" stroke="#00fe18" stroke-width="4"><title>defy:left:r5:c3 | L1 Space | L1 Space (44) | LED 29, palette slot 1</title></rect>
<text x="1020" y="816" fill="#b9c8d9" font-size="14">L1 Space</text>
<text x="1020" y="859" fill="#f4f8fb" font-size="19" font-weight="650">Space</text>
<text x="1020" y="897" fill="#90a5bb" font-size="13">code 44 · slot 1</text>
<rect x="1198" y="793" width="174" height="118" rx="15" fill="#263244" stroke="#ff00e8" stroke-width="4"><title>defy:left:r5:c4 | L1 Code 17453 | L1 Code 17453 (17453) | LED 30, palette slot 6</title></rect>
<text x="1208" y="816" fill="#b9c8d9" font-size="14">L1 Code 17453</text>
<text x="1208" y="859" fill="#f4f8fb" font-size="19" font-weight="650">Code 17453</text>
<text x="1208" y="897" fill="#90a5bb" font-size="13">code 17453 · slot 6</text>
<rect x="1198" y="933" width="174" height="118" rx="15" fill="#263244" stroke="#9013fe" stroke-width="4"><title>defy:left:r5:c5 | L1 Enter | L1 Enter (40) | LED 31, palette slot 8</title></rect>
<text x="1208" y="956" fill="#b9c8d9" font-size="14">L1 Enter</text>
<text x="1208" y="999" fill="#f4f8fb" font-size="19" font-weight="650">Enter</text>
<text x="1208" y="1037" fill="#90a5bb" font-size="13">code 40 · slot 8</text>
<rect x="1010" y="933" width="174" height="118" rx="15" fill="#263244" stroke="#ff0900" stroke-width="4"><title>defy:left:r5:c6 | L1 Esc | L1 Esc (41) | LED 32, palette slot 11</title></rect>
<text x="1020" y="956" fill="#b9c8d9" font-size="14">L1 Esc</text>
<text x="1020" y="999" fill="#f4f8fb" font-size="19" font-weight="650">Esc</text>
<text x="1020" y="1037" fill="#90a5bb" font-size="13">code 41 · slot 11</text>
<rect x="822" y="933" width="174" height="118" rx="15" fill="#263244" stroke="#000000" stroke-width="4"><title>defy:left:r5:c7 | L1 No Key | L1 No Key (0) | LED 33, palette slot 15</title></rect>
<text x="832" y="956" fill="#b9c8d9" font-size="14">L1 No Key</text>
<text x="832" y="999" fill="#f4f8fb" font-size="19" font-weight="650">No Key</text>
<text x="832" y="1037" fill="#90a5bb" font-size="13">code 0 · slot 15</text>
<rect x="634" y="933" width="174" height="118" rx="15" fill="#263244" stroke="#0034ff" stroke-width="4"><title>defy:left:r5:c8 | L1 Cmd+R | L1 Cmd+R (4117) | LED 34, palette slot 5</title></rect>
<text x="644" y="956" fill="#b9c8d9" font-size="14">L1 Cmd+R</text>
<text x="644" y="999" fill="#f4f8fb" font-size="19" font-weight="650">Cmd+R</text>
<text x="644" y="1037" fill="#90a5bb" font-size="13">code 4117 · slot 5</text>
<rect x="1572" y="245" width="174" height="118" rx="15" fill="#263244" stroke="#ff0900" stroke-width="4"><title>defy:right:r1:c1 | L1 Code 2096 | L1 Code 2096 (2096) | LED 35, palette slot 11</title></rect>
<text x="1582" y="268" fill="#b9c8d9" font-size="14">L1 Code 2096</text>
<text x="1582" y="311" fill="#f4f8fb" font-size="19" font-weight="650">Code 2096</text>
<text x="1582" y="349" fill="#90a5bb" font-size="13">code 2096 · slot 11</text>
<rect x="1760" y="245" width="174" height="118" rx="15" fill="#263244" stroke="#00feea" stroke-width="4"><title>defy:right:r1:c2 | L1 6 | L1 6 (35) | LED 36, palette slot 4</title></rect>
<text x="1770" y="268" fill="#b9c8d9" font-size="14">L1 6</text>
<text x="1770" y="311" fill="#f4f8fb" font-size="19" font-weight="650">6</text>
<text x="1770" y="349" fill="#90a5bb" font-size="13">code 35 · slot 4</text>
<rect x="1948" y="245" width="174" height="118" rx="15" fill="#263244" stroke="#00feea" stroke-width="4"><title>defy:right:r1:c3 | L1 7 | L1 7 (36) | LED 37, palette slot 4</title></rect>
<text x="1958" y="268" fill="#b9c8d9" font-size="14">L1 7</text>
<text x="1958" y="311" fill="#f4f8fb" font-size="19" font-weight="650">7</text>
<text x="1958" y="349" fill="#90a5bb" font-size="13">code 36 · slot 4</text>
<rect x="2136" y="245" width="174" height="118" rx="15" fill="#263244" stroke="#00feea" stroke-width="4"><title>defy:right:r1:c4 | L1 8 | L1 8 (37) | LED 38, palette slot 4</title></rect>
<text x="2146" y="268" fill="#b9c8d9" font-size="14">L1 8</text>
<text x="2146" y="311" fill="#f4f8fb" font-size="19" font-weight="650">8</text>
<text x="2146" y="349" fill="#90a5bb" font-size="13">code 37 · slot 4</text>
<rect x="2324" y="245" width="174" height="118" rx="15" fill="#263244" stroke="#00feea" stroke-width="4"><title>defy:right:r1:c5 | L1 9 | L1 9 (38) | LED 39, palette slot 4</title></rect>
<text x="2334" y="268" fill="#b9c8d9" font-size="14">L1 9</text>
<text x="2334" y="311" fill="#f4f8fb" font-size="19" font-weight="650">9</text>
<text x="2334" y="349" fill="#90a5bb" font-size="13">code 38 · slot 4</text>
<rect x="2512" y="245" width="174" height="118" rx="15" fill="#263244" stroke="#00feea" stroke-width="4"><title>defy:right:r1:c6 | L1 0 | L1 0 (39) | LED 40, palette slot 4</title></rect>
<text x="2522" y="268" fill="#b9c8d9" font-size="14">L1 0</text>
<text x="2522" y="311" fill="#f4f8fb" font-size="19" font-weight="650">0</text>
<text x="2522" y="349" fill="#90a5bb" font-size="13">code 39 · slot 4</text>
<rect x="2700" y="245" width="174" height="118" rx="15" fill="#263244" stroke="#57a4ff" stroke-width="4"><title>defy:right:r1:c7 | L1 Code 76 | L1 Code 76 (76) | LED 41, palette slot 7</title></rect>
<text x="2710" y="268" fill="#b9c8d9" font-size="14">L1 Code 76</text>
<text x="2710" y="311" fill="#f4f8fb" font-size="19" font-weight="650">Code 76</text>
<text x="2710" y="349" fill="#90a5bb" font-size="13">code 76 · slot 7</text>
<rect x="1572" y="377" width="174" height="118" rx="15" fill="#263244" stroke="#57a4ff" stroke-width="4"><title>defy:right:r2:c1 | L1 Right Bracket | L1 Right Bracket (48) | LED 42, palette slot 7</title></rect>
<text x="1582" y="400" fill="#b9c8d9" font-size="14">L1 Right Bracket</text>
<text x="1582" y="443" fill="#f4f8fb" font-size="19" font-weight="650">Right Bracket</text>
<text x="1582" y="481" fill="#90a5bb" font-size="13">code 48 · slot 7</text>
<rect x="1760" y="377" width="174" height="118" rx="15" fill="#263244" stroke="#00feea" stroke-width="4"><title>defy:right:r2:c2 | L1 Y | L1 Y (28) | LED 43, palette slot 4</title></rect>
<text x="1770" y="400" fill="#b9c8d9" font-size="14">L1 Y</text>
<text x="1770" y="443" fill="#f4f8fb" font-size="19" font-weight="650">Y</text>
<text x="1770" y="481" fill="#90a5bb" font-size="13">code 28 · slot 4</text>
<rect x="1948" y="377" width="174" height="118" rx="15" fill="#263244" stroke="#00feea" stroke-width="4"><title>defy:right:r2:c3 | L1 U | L1 U (24) | LED 44, palette slot 4</title></rect>
<text x="1958" y="400" fill="#b9c8d9" font-size="14">L1 U</text>
<text x="1958" y="443" fill="#f4f8fb" font-size="19" font-weight="650">U</text>
<text x="1958" y="481" fill="#90a5bb" font-size="13">code 24 · slot 4</text>
<rect x="2136" y="377" width="174" height="118" rx="15" fill="#263244" stroke="#00feea" stroke-width="4"><title>defy:right:r2:c4 | L1 I | L1 I (12) | LED 45, palette slot 4</title></rect>
<text x="2146" y="400" fill="#b9c8d9" font-size="14">L1 I</text>
<text x="2146" y="443" fill="#f4f8fb" font-size="19" font-weight="650">I</text>
<text x="2146" y="481" fill="#90a5bb" font-size="13">code 12 · slot 4</text>
<rect x="2324" y="377" width="174" height="118" rx="15" fill="#263244" stroke="#00feea" stroke-width="4"><title>defy:right:r2:c5 | L1 O | L1 O (18) | LED 46, palette slot 4</title></rect>
<text x="2334" y="400" fill="#b9c8d9" font-size="14">L1 O</text>
<text x="2334" y="443" fill="#f4f8fb" font-size="19" font-weight="650">O</text>
<text x="2334" y="481" fill="#90a5bb" font-size="13">code 18 · slot 4</text>
<rect x="2512" y="377" width="174" height="118" rx="15" fill="#263244" stroke="#00feea" stroke-width="4"><title>defy:right:r2:c6 | L1 P | L1 P (19) | LED 47, palette slot 4</title></rect>
<text x="2522" y="400" fill="#b9c8d9" font-size="14">L1 P</text>
<text x="2522" y="443" fill="#f4f8fb" font-size="19" font-weight="650">P</text>
<text x="2522" y="481" fill="#90a5bb" font-size="13">code 19 · slot 4</text>
<rect x="2700" y="377" width="174" height="118" rx="15" fill="#263244" stroke="#57a4ff" stroke-width="4"><title>defy:right:r2:c7 | L1 Minus | L1 Minus (45) | LED 48, palette slot 7</title></rect>
<text x="2710" y="400" fill="#b9c8d9" font-size="14">L1 Minus</text>
<text x="2710" y="443" fill="#f4f8fb" font-size="19" font-weight="650">Minus</text>
<text x="2710" y="481" fill="#90a5bb" font-size="13">code 45 · slot 7</text>
<rect x="1572" y="509" width="174" height="118" rx="15" fill="#263244" stroke="#57a4ff" stroke-width="4"><title>defy:right:r3:c1 | L1 Backslash | L1 Backslash (49) | LED 49, palette slot 7</title></rect>
<text x="1582" y="532" fill="#b9c8d9" font-size="14">L1 Backslash</text>
<text x="1582" y="575" fill="#f4f8fb" font-size="19" font-weight="650">Backslash</text>
<text x="1582" y="613" fill="#90a5bb" font-size="13">code 49 · slot 7</text>
<rect x="1760" y="509" width="174" height="118" rx="15" fill="#263244" stroke="#57a4ff" stroke-width="4"><title>defy:right:r3:c2 | L1 H | L1 H (11) | LED 50, palette slot 7</title></rect>
<text x="1770" y="532" fill="#b9c8d9" font-size="14">L1 H</text>
<text x="1770" y="575" fill="#f4f8fb" font-size="19" font-weight="650">H</text>
<text x="1770" y="613" fill="#90a5bb" font-size="13">code 11 · slot 7</text>
<rect x="1948" y="509" width="174" height="118" rx="15" fill="#263244" stroke="#00feea" stroke-width="4"><title>defy:right:r3:c3 | L1 Superkey J | L1 Superkey J (53985) | LED 51, palette slot 4</title></rect>
<text x="1958" y="532" fill="#b9c8d9" font-size="14">L1 Superkey J</text>
<text x="1958" y="575" fill="#f4f8fb" font-size="19" font-weight="650">Superkey J</text>
<text x="1958" y="613" fill="#90a5bb" font-size="13">code 53985 · slot 4</text>
<rect x="2136" y="509" width="174" height="118" rx="15" fill="#263244" stroke="#00feea" stroke-width="4"><title>defy:right:r3:c4 | L1 Superkey K | L1 Superkey K (53986) | LED 52, palette slot 4</title></rect>
<text x="2146" y="532" fill="#b9c8d9" font-size="14">L1 Superkey K</text>
<text x="2146" y="575" fill="#f4f8fb" font-size="19" font-weight="650">Superkey K</text>
<text x="2146" y="613" fill="#90a5bb" font-size="13">code 53986 · slot 4</text>
<rect x="2324" y="509" width="174" height="118" rx="15" fill="#263244" stroke="#00feea" stroke-width="4"><title>defy:right:r3:c5 | L1 Superkey L | L1 Superkey L (53987) | LED 53, palette slot 4</title></rect>
<text x="2334" y="532" fill="#b9c8d9" font-size="14">L1 Superkey L</text>
<text x="2334" y="575" fill="#f4f8fb" font-size="19" font-weight="650">Superkey L</text>
<text x="2334" y="613" fill="#90a5bb" font-size="13">code 53987 · slot 4</text>
<rect x="2512" y="509" width="174" height="118" rx="15" fill="#263244" stroke="#00feea" stroke-width="4"><title>defy:right:r3:c6 | L1 Superkey ; | L1 Superkey ; (53988) | LED 54, palette slot 4</title></rect>
<text x="2522" y="532" fill="#b9c8d9" font-size="14">L1 Superkey ;</text>
<text x="2522" y="575" fill="#f4f8fb" font-size="19" font-weight="650">Superkey ;</text>
<text x="2522" y="613" fill="#90a5bb" font-size="13">code 53988 · slot 4</text>
<rect x="2700" y="509" width="174" height="118" rx="15" fill="#263244" stroke="#57a4ff" stroke-width="4"><title>defy:right:r3:c7 | L1 Quote | L1 Quote (52) | LED 55, palette slot 7</title></rect>
<text x="2710" y="532" fill="#b9c8d9" font-size="14">L1 Quote</text>
<text x="2710" y="575" fill="#f4f8fb" font-size="19" font-weight="650">Quote</text>
<text x="2710" y="613" fill="#90a5bb" font-size="13">code 52 · slot 7</text>
<rect x="1572" y="641" width="174" height="118" rx="15" fill="#263244" stroke="#738396" stroke-width="4" stroke-dasharray="7 5"><title>defy:right:r4:c1 | L1 No Key | L1 No Key (0) | LED mapping unverified</title></rect>
<text x="1582" y="664" fill="#b9c8d9" font-size="14">L1 No Key</text>
<text x="1582" y="707" fill="#f4f8fb" font-size="19" font-weight="650">No Key</text>
<text x="1582" y="745" fill="#90a5bb" font-size="13">code 0</text>
<rect x="1760" y="641" width="174" height="118" rx="15" fill="#263244" stroke="#738396" stroke-width="4" stroke-dasharray="7 5"><title>defy:right:r4:c2 | L1 N | L1 N (17) | LED mapping unverified</title></rect>
<text x="1770" y="664" fill="#b9c8d9" font-size="14">L1 N</text>
<text x="1770" y="707" fill="#f4f8fb" font-size="19" font-weight="650">N</text>
<text x="1770" y="745" fill="#90a5bb" font-size="13">code 17</text>
<rect x="1948" y="641" width="174" height="118" rx="15" fill="#263244" stroke="#738396" stroke-width="4" stroke-dasharray="7 5"><title>defy:right:r4:c3 | L1 M | L1 M (16) | LED mapping unverified</title></rect>
<text x="1958" y="664" fill="#b9c8d9" font-size="14">L1 M</text>
<text x="1958" y="707" fill="#f4f8fb" font-size="19" font-weight="650">M</text>
<text x="1958" y="745" fill="#90a5bb" font-size="13">code 16</text>
<rect x="2136" y="641" width="174" height="118" rx="15" fill="#263244" stroke="#738396" stroke-width="4" stroke-dasharray="7 5"><title>defy:right:r4:c4 | L1 Comma | L1 Comma (54) | LED mapping unverified</title></rect>
<text x="2146" y="664" fill="#b9c8d9" font-size="14">L1 Comma</text>
<text x="2146" y="707" fill="#f4f8fb" font-size="19" font-weight="650">Comma</text>
<text x="2146" y="745" fill="#90a5bb" font-size="13">code 54</text>
<rect x="2324" y="641" width="174" height="118" rx="15" fill="#263244" stroke="#738396" stroke-width="4" stroke-dasharray="7 5"><title>defy:right:r4:c5 | L1 Period | L1 Period (55) | LED mapping unverified</title></rect>
<text x="2334" y="664" fill="#b9c8d9" font-size="14">L1 Period</text>
<text x="2334" y="707" fill="#f4f8fb" font-size="19" font-weight="650">Period</text>
<text x="2334" y="745" fill="#90a5bb" font-size="13">code 55</text>
<rect x="2512" y="641" width="174" height="118" rx="15" fill="#263244" stroke="#738396" stroke-width="4" stroke-dasharray="7 5"><title>defy:right:r4:c6 | L1 Slash | L1 Slash (56) | LED mapping unverified</title></rect>
<text x="2522" y="664" fill="#b9c8d9" font-size="14">L1 Slash</text>
<text x="2522" y="707" fill="#f4f8fb" font-size="19" font-weight="650">Slash</text>
<text x="2522" y="745" fill="#90a5bb" font-size="13">code 56</text>
<rect x="2700" y="641" width="174" height="118" rx="15" fill="#263244" stroke="#738396" stroke-width="4" stroke-dasharray="7 5"><title>defy:right:r4:c7 | L1 Equals | L1 Equals (46) | LED mapping unverified</title></rect>
<text x="2710" y="664" fill="#b9c8d9" font-size="14">L1 Equals</text>
<text x="2710" y="707" fill="#f4f8fb" font-size="19" font-weight="650">Equals</text>
<text x="2710" y="745" fill="#90a5bb" font-size="13">code 46</text>
<rect x="2086" y="933" width="174" height="118" rx="15" fill="#263244" stroke="#738396" stroke-width="4" stroke-dasharray="7 5"><title>defy:right:r5:c1 | L1 No Key | L1 No Key (0) | LED mapping unverified</title></rect>
<text x="2096" y="956" fill="#b9c8d9" font-size="14">L1 No Key</text>
<text x="2096" y="999" fill="#f4f8fb" font-size="19" font-weight="650">No Key</text>
<text x="2096" y="1037" fill="#90a5bb" font-size="13">code 0</text>
<rect x="1898" y="933" width="174" height="118" rx="15" fill="#263244" stroke="#738396" stroke-width="4" stroke-dasharray="7 5"><title>defy:right:r5:c2 | L1 No Key | L1 No Key (0) | LED mapping unverified</title></rect>
<text x="1908" y="956" fill="#b9c8d9" font-size="14">L1 No Key</text>
<text x="1908" y="999" fill="#f4f8fb" font-size="19" font-weight="650">No Key</text>
<text x="1908" y="1037" fill="#90a5bb" font-size="13">code 0</text>
<rect x="1710" y="933" width="174" height="118" rx="15" fill="#263244" stroke="#738396" stroke-width="4" stroke-dasharray="7 5"><title>defy:right:r5:c3 | L1 Code 17493 | L1 Code 17493 (17493) | LED mapping unverified</title></rect>
<text x="1720" y="956" fill="#b9c8d9" font-size="14">L1 Code 17493</text>
<text x="1720" y="999" fill="#f4f8fb" font-size="19" font-weight="650">Code 17493</text>
<text x="1720" y="1037" fill="#90a5bb" font-size="13">code 17493</text>
<rect x="1522" y="933" width="174" height="118" rx="15" fill="#263244" stroke="#738396" stroke-width="4" stroke-dasharray="7 5"><title>defy:right:r5:c4 | L1 Enter | L1 Enter (40) | LED mapping unverified</title></rect>
<text x="1532" y="956" fill="#b9c8d9" font-size="14">L1 Enter</text>
<text x="1532" y="999" fill="#f4f8fb" font-size="19" font-weight="650">Enter</text>
<text x="1532" y="1037" fill="#90a5bb" font-size="13">code 40</text>
<rect x="1522" y="793" width="174" height="118" rx="15" fill="#263244" stroke="#738396" stroke-width="4" stroke-dasharray="7 5"><title>defy:right:r5:c5 | L1 Code 50747 | L1 Code 50747 (50747) | LED mapping unverified</title></rect>
<text x="1532" y="816" fill="#b9c8d9" font-size="14">L1 Code 50747</text>
<text x="1532" y="859" fill="#f4f8fb" font-size="19" font-weight="650">Code 50747</text>
<text x="1532" y="897" fill="#90a5bb" font-size="13">code 50747</text>
<rect x="1710" y="793" width="174" height="118" rx="15" fill="#263244" stroke="#738396" stroke-width="4" stroke-dasharray="7 5"><title>defy:right:r5:c6 | L1 Space | L1 Space (44) | LED mapping unverified</title></rect>
<text x="1720" y="816" fill="#b9c8d9" font-size="14">L1 Space</text>
<text x="1720" y="859" fill="#f4f8fb" font-size="19" font-weight="650">Space</text>
<text x="1720" y="897" fill="#90a5bb" font-size="13">code 44</text>
<rect x="1898" y="793" width="174" height="118" rx="15" fill="#263244" stroke="#738396" stroke-width="4" stroke-dasharray="7 5"><title>defy:right:r5:c7 | L1 No Key | L1 No Key (0) | LED mapping unverified</title></rect>
<text x="1908" y="816" fill="#b9c8d9" font-size="14">L1 No Key</text>
<text x="1908" y="859" fill="#f4f8fb" font-size="19" font-weight="650">No Key</text>
<text x="1908" y="897" fill="#90a5bb" font-size="13">code 0</text>
<rect x="2086" y="793" width="174" height="118" rx="15" fill="#263244" stroke="#738396" stroke-width="4" stroke-dasharray="7 5"><title>defy:right:r5:c8 | L1 No Key | L1 No Key (0) | LED mapping unverified</title></rect>
<text x="2096" y="816" fill="#b9c8d9" font-size="14">L1 No Key</text>
<text x="2096" y="859" fill="#f4f8fb" font-size="19" font-weight="650">No Key</text>
<text x="2096" y="897" fill="#90a5bb" font-size="13">code 0</text>
<text x="70" y="1096" fill="#b9c8d9" font-size="18">Palette slots shown: 1, 3, 4, 5, 6, 7, 8, 11, 12, 14, 15 · exact RGBW values remain in the backup</text>
<text x="70" y="1131" fill="#b9c8d9" font-size="18">Transparent means pass through; No Key is a stored keycode. Unknown commands retain their numeric code.</text>
<text x="70" y="1166" fill="#b9c8d9" font-size="18">This is a saved backup snapshot; it does not prove the device is currently connected or unchanged.</text>
</svg>
